<svg width="190" height="37" fill="none" xmlns="http://www.w3.org/2000/svg"><g clip-path="url(#clip0)"><g clip-path="url(#clip1)"><path d="M39.416 24.573l-2.092-.976c2.51-8.29-1.354-17.37-9.422-21.132C21.669-.442 14.617.622 9.539 4.594l3.526 3.658c3.59-2.578 8.418-3.202 12.704-1.204 5.534 2.581 8.313 8.671 6.932 14.394l-2.758-1.286c-.515.179-.951.235-.724 1.066l2.24 6.336c.195.51.767.776 1.279.596l6.324-2.342c.515-.18.545-.73.354-1.239zm-24.337 5.39c-5.12-2.386-7.882-7.78-7.173-13.106l2.504 1.168c.515-.18.915-.558.724-1.066l-2.269-6.354a1.015 1.015 0 0 0-1.278-.596l-6.294 2.356c-.786.358-.545.73-.35 1.24l2.096.978c-1.93 7.377 1.947 16.253 9.907 19.965 5.826 2.716 12.365 1.96 17.342-1.393l-3.53-3.729c-3.455 2.003-7.793 2.35-11.68.538z" fill="#3C70FF"/></g><g clip-path="url(#clip2)"><path d="M19.144 24.772c0 1.066-.38 1.93-1.442 1.93h-3.367c-1.923 0-1.923-6.755 0-6.755h3.367c1.062 0 1.442.864 1.442 1.93v2.895z" fill="#4A148C"/><path d="M28.281 25.737h-.48v-4.825h.48a.481.481 0 1 0 0-.965H16.74c-1.924 0-1.924 6.755 0 6.755H28.28c.266 0 .481-.216.481-.483a.481.481 0 0 0-.48-.482z" fill="#9C27B0"/><path d="M28.364 25.737H17.22c-.961 0-.961-4.825 0-4.825h11.144c.53 0 .53 4.825 0 4.825z" fill="#CCD6DD"/><path d="M17.46 21.877h11.23c-.065-.567-.174-.965-.326-.965H17.22c-.794 0-.933 3.285-.416 4.433-.188-1.427.03-3.468.656-3.468z" fill="#99AAB5"/><path d="M17.701 13.675c0 1.066-.86 1.93-1.923 1.93h-1.924c-1.923 0-1.923-5.307 0-5.307h1.924c1.062 0 1.923.864 1.923 1.93v1.447z" fill="#265AE8"/><path d="M26.839 14.64h-.481v-3.377h.48a.481.481 0 1 0 0-.965h-11.54c-1.924 0-1.924 5.307 0 5.307h11.54a.481.481 0 1 0 0-.965z" fill="#638CFF"/><path d="M26.921 14.64H15.778c-.962 0-.962-3.377 0-3.377h11.143c.531 0 .531 3.377 0 3.377z" fill="#CCD6DD"/><path d="M15.778 12.228h11.505c-.055-.543-.175-.965-.362-.965H15.778c-.574 0-.803 1.201-.692 2.171.075-.655.304-1.206.692-1.206z" fill="#99AAB5"/><path d="M21.549 18.018c0 1.065-.861 1.93-1.924 1.93h-4.809c-1.923 0-1.923-4.343 0-4.343h4.81c1.061 0 1.923.864 1.923 1.93v.483z" fill="#E65100"/><path d="M28.762 18.983h-.48V16.57h.48a.481.481 0 0 0 0-.965h-9.618c-1.923 0-1.923 4.342 0 4.342h9.618a.481.481 0 0 0 0-.964z" fill="#FF9800"/><path d="M28.845 18.983h-9.22c-.962 0-.962-2.413 0-2.413h9.22c.53 0 .53 2.413 0 2.413z" fill="#CCD6DD"/><path d="M19.625 17.535h9.61c-.03-.512-.16-.965-.39-.965h-9.22c-.613 0-.834.978-.665 1.689.095-.405.316-.724.665-.724z" fill="#99AAB5"/></g><path d="M49.674 9.034h5.976c2.328 0 4.055.347 5.18 1.043 1.133.687 1.7 1.761 1.7 3.222 0 .961-.247 1.782-.739 2.461a3.293 3.293 0 0 1-1.945 1.313v.117c1.062.281 1.832.75 2.308 1.406.477.657.715 1.508.715 2.555 0 1.555-.586 2.781-1.758 3.68-1.164.89-2.754 1.336-4.77 1.336h-6.667V9.034zm4.629 6.574h1.394c.664 0 1.176-.137 1.535-.41.368-.274.551-.68.551-1.219 0-.96-.726-1.441-2.18-1.441h-1.3v3.07zm0 3.387v3.597h1.629c1.445 0 2.168-.609 2.168-1.828 0-.57-.196-1.008-.586-1.312-.383-.305-.942-.457-1.676-.457h-1.535zm27.574-1.418c0 2.883-.707 5.074-2.121 6.574-1.414 1.5-3.484 2.25-6.211 2.25-2.688 0-4.75-.754-6.188-2.262-1.43-1.508-2.144-3.703-2.144-6.586 0-2.851.71-5.027 2.133-6.527 1.43-1.508 3.504-2.262 6.222-2.262 2.727 0 4.793.746 6.2 2.239 1.406 1.492 2.109 3.683 2.109 6.574zm-11.79 0c0 3.312 1.153 4.968 3.458 4.968 1.172 0 2.039-.402 2.602-1.207.57-.804.855-2.058.855-3.761 0-1.711-.29-2.973-.867-3.785-.57-.82-1.426-1.23-2.567-1.23-2.32 0-3.48 1.671-3.48 5.015zm30.915 0c0 2.883-.707 5.074-2.121 6.574-1.414 1.5-3.484 2.25-6.211 2.25-2.688 0-4.75-.754-6.188-2.262-1.43-1.508-2.144-3.703-2.144-6.586 0-2.851.71-5.027 2.133-6.527 1.43-1.508 3.504-2.262 6.222-2.262 2.727 0 4.793.746 6.2 2.239 1.406 1.492 2.109 3.683 2.109 6.574zm-11.79 0c0 3.312 1.153 4.968 3.458 4.968 1.172 0 2.039-.402 2.602-1.207.57-.804.855-2.058.855-3.761 0-1.711-.29-2.973-.867-3.785-.57-.82-1.426-1.23-2.567-1.23-2.32 0-3.48 1.671-3.48 5.015zm29.52 8.59h-5.226l-3.387-6.551-1.371.82v5.73h-4.652V9.035h4.652v7.441c.234-.46.707-1.191 1.418-2.191l3.598-5.25h5.062l-5.402 7.676 5.308 9.457z" fill="#2962FF"/><path d="M131.799 20.963c0 1.063-.27 2.008-.809 2.836-.539.82-1.316 1.461-2.332 1.922-1.015.453-2.207.68-3.574.68-1.141 0-2.098-.078-2.871-.234a10.875 10.875 0 0 1-2.414-.844v-4.125c.883.453 1.801.808 2.754 1.066.953.25 1.828.375 2.625.375.687 0 1.191-.117 1.511-.351.321-.242.481-.551.481-.926a.966.966 0 0 0-.199-.61c-.125-.18-.332-.359-.621-.538-.282-.18-1.039-.547-2.274-1.102-1.117-.508-1.957-1-2.519-1.477a4.629 4.629 0 0 1-1.243-1.64c-.265-.617-.398-1.348-.398-2.192 0-1.578.574-2.808 1.723-3.691 1.148-.883 2.726-1.324 4.734-1.324 1.773 0 3.582.41 5.426 1.23l-1.418 3.574c-1.602-.734-2.985-1.101-4.149-1.101-.601 0-1.039.105-1.312.316-.274.211-.41.473-.41.785 0 .336.172.637.515.903.352.265 1.297.75 2.836 1.453 1.477.664 2.5 1.379 3.071 2.144.578.758.867 1.715.867 2.872zm21.152 5.204h-5.472l-1.641-7.465a38.197 38.197 0 0 1-.375-1.864 48.238 48.238 0 0 1-.363-2.332c-.063.508-.164 1.141-.305 1.899-.141.75-.281 1.441-.422 2.074-.133.633-.699 3.195-1.699 7.688h-5.473l-4.242-17.133h4.465l1.863 8.59c.422 1.898.711 3.41.867 4.535.102-.797.282-1.88.539-3.246a64.9 64.9 0 0 1 .739-3.399l1.511-6.48h4.289l1.465 6.48c.25 1.04.504 2.239.762 3.598.258 1.36.43 2.375.516 3.047.101-.867.379-2.371.832-4.512l1.898-8.613h4.465l-4.219 17.133zm16.945 0l-.843-3.211h-5.567l-.867 3.21h-5.086l5.59-17.203h6.176l5.66 17.204h-5.063zm-1.804-7.008l-.738-2.813c-.172-.625-.383-1.433-.633-2.425a42.215 42.215 0 0 1-.481-2.133c-.07.398-.211 1.054-.422 1.969-.203.914-.66 2.714-1.371 5.402h3.645zm21.164-4.676c0 1.914-.567 3.395-1.699 4.441-1.125 1.04-2.727 1.559-4.805 1.559h-1.301v5.684h-4.629V9.034h5.93c2.164 0 3.789.472 4.875 1.418 1.086.945 1.629 2.289 1.629 4.031zm-7.805 2.227h.844c.695 0 1.246-.196 1.652-.586.414-.391.621-.93.621-1.617 0-1.157-.64-1.735-1.922-1.735h-1.195v3.938z" fill="#638CFF"/></g><defs><clipPath id="clip0"><path fill="#fff" d="M0 0h190v37H0z"/></clipPath><clipPath id="clip1"><path fill="#fff" transform="rotate(25.071 25.456 18.964) skewX(.142)" d="M0 0h41.277v41.363H0z"/></clipPath><clipPath id="clip2"><path fill="#fff" transform="translate(11.45 9.333)" d="M0 0h18.274v18.333H0z"/></clipPath></defs></svg>