<svg width="40" height="37" fill="none" xmlns="http://www.w3.org/2000/svg"><g clip-path="url(#clip0)"><g clip-path="url(#clip1)"><path d="M39.416 24.573l-2.092-.976c2.51-8.29-1.354-17.37-9.422-21.132C21.669-.442 14.617.622 9.539 4.594l3.526 3.658c3.59-2.578 8.418-3.202 12.704-1.204 5.534 2.581 8.313 8.671 6.932 14.394l-2.758-1.286c-.515.179-.951.235-.724 1.066l2.24 6.336c.195.51.767.776 1.279.596l6.324-2.342c.515-.18.545-.73.354-1.239zM15.08 29.964c-5.12-2.387-7.882-7.781-7.173-13.107l2.504 1.168c.515-.18.915-.558.724-1.066l-2.269-6.354a1.015 1.015 0 0 0-1.278-.596l-6.294 2.356c-.786.359-.545.73-.35 1.24l2.096.978c-1.93 7.377 1.947 16.253 9.907 19.965 5.826 2.716 12.365 1.96 17.342-1.393l-3.53-3.729c-3.455 2.003-7.793 2.35-11.68.538z" fill="#3C70FF"/></g><g clip-path="url(#clip2)"><path d="M19.144 24.772c0 1.066-.38 1.93-1.442 1.93h-3.367c-1.923 0-1.923-6.755 0-6.755h3.367c1.062 0 1.442.864 1.442 1.93v2.895z" fill="#4A148C"/><path d="M28.281 25.737h-.48v-4.825h.48a.481.481 0 1 0 0-.965H16.74c-1.924 0-1.924 6.755 0 6.755H28.28c.266 0 .481-.216.481-.483a.481.481 0 0 0-.48-.482z" fill="#9C27B0"/><path d="M28.364 25.737H17.22c-.961 0-.961-4.825 0-4.825h11.144c.53 0 .53 4.825 0 4.825z" fill="#CCD6DD"/><path d="M17.46 21.877h11.23c-.065-.567-.174-.965-.326-.965H17.22c-.794 0-.933 3.285-.416 4.433-.188-1.428.03-3.468.656-3.468z" fill="#99AAB5"/><path d="M17.701 13.675c0 1.066-.86 1.93-1.923 1.93h-1.924c-1.923 0-1.923-5.307 0-5.307h1.924c1.062 0 1.923.864 1.923 1.93v1.447z" fill="#265AE8"/><path d="M26.839 14.64h-.481v-3.377h.48a.481.481 0 1 0 0-.965h-11.54c-1.924 0-1.924 5.307 0 5.307h11.54a.481.481 0 1 0 0-.965z" fill="#638CFF"/><path d="M26.921 14.64H15.778c-.962 0-.962-3.377 0-3.377h11.143c.531 0 .531 3.377 0 3.377z" fill="#CCD6DD"/><path d="M15.778 12.228h11.505c-.055-.543-.175-.965-.362-.965H15.778c-.574 0-.803 1.2-.692 2.171.075-.655.304-1.206.692-1.206z" fill="#99AAB5"/><path d="M21.549 18.017c0 1.066-.861 1.93-1.924 1.93h-4.809c-1.923 0-1.923-4.342 0-4.342h4.81c1.061 0 1.923.864 1.923 1.93v.482z" fill="#E65100"/><path d="M28.762 18.982h-.48V16.57h.48a.481.481 0 0 0 0-.965h-9.618c-1.923 0-1.923 4.342 0 4.342h9.618a.481.481 0 0 0 0-.965z" fill="#FF9800"/><path d="M28.845 18.982h-9.22c-.962 0-.962-2.412 0-2.412h9.22c.53 0 .53 2.412 0 2.412z" fill="#CCD6DD"/><path d="M19.625 17.535h9.61c-.03-.512-.16-.965-.39-.965h-9.22c-.613 0-.834.978-.665 1.689.095-.405.316-.724.665-.724z" fill="#99AAB5"/></g></g><defs><clipPath id="clip0"><path fill="#fff" d="M0 0h40v37H0z"/></clipPath><clipPath id="clip1"><path fill="#fff" transform="rotate(25.071 25.456 18.964) skewX(.142)" d="M0 0h41.277v41.363H0z"/></clipPath><clipPath id="clip2"><path fill="#fff" transform="translate(11.45 9.333)" d="M0 0h18.274v18.333H0z"/></clipPath></defs></svg>