<svg width="521" height="377" fill="none" xmlns="http://www.w3.org/2000/svg"><g clip-path="url(#clip0)"><path opacity=".1" d="M71.651 215.84c16.441 26.889 13.534 63.412 6.49 92.211-2.358 9.643-5.082 19.812-2.985 30.617 2.565 13.211 11.755 23.625 21.037 29.585 16.923 10.872 36.19 10.65 50.143-.574 12.078-9.701 19.985-26.673 32.304-35.848 20.641-15.357 49.069-5.873 73.798 8.679 17.498 10.289 36.755 23.312 52.844 16.055 11.321-5.106 18.322-19.619 21.567-35.433 1.562-7.633 2.488-15.974 6.118-21.784 2.16-3.452 5.14-5.757 8.231-7.642 28.21-17.198 66.537-2.555 93.725-22.049 18.365-13.167 28.727-40.471 32.039-69.704 3.312-29.233.381-60.549-3.274-91.382-2.613-21.91-6.123-45.37-17.521-63.234-12.054-18.896-30.974-27.391-47.376-25.699-16.403 1.692-30.607 12.218-42.835 25.072-15.284 16.065-29.035 36.61-48.88 41.725-13.5 3.486-28.312-.68-42.695-3.061-24.045-3.983-47.733-2.97-71.242-1.616-22.512 1.297-45.163 2.946-66.113 10.911-14.826 5.637-26.171 17.454-39.994 25.111-9.012 4.99-19.2 5.583-27.589 12.256-10.332 8.197-19.238 23.433-15.005 42.724 4.026 18.345 18.491 28.813 27.213 43.08z" fill="#6C63FF"/><path d="M378.603 133.701s70.944-15.863-19.325-108.672c0 0-38.909 36.88-24.638 82.722 5.738 18.433 24.204 29.812 42.912 26.167l1.051-.217z" fill="#6C63FF"/><path opacity=".4" d="M378.603 133.701c1.557-.348 69.43-17.43-19.325-108.672 0 0-38.909 36.88-24.638 82.722 5.738 18.433 24.204 29.812 42.912 26.167l1.051-.217z" fill="#fff"/><path d="M377.663 134.231s-37.473-56.45-18.394-109.198" stroke="#535461" stroke-miterlimit="10"/><path d="M86.752 188.516s12.227-49.232-6.302-84.285c-7.782-14.71-10.872-31.47-8.273-47.906a129.262 129.262 0 0 1 5.853-22.902" stroke="#535461" stroke-width="2" stroke-miterlimit="10"/><path d="M66.482 11.263c.256 5.96 11.784 22.772 11.784 22.772s10.048-17.738 9.793-23.698a10.8 10.8 0 0 0-21.577.926zM50.06 45.028c3.453 4.865 22.27 12.714 22.27 12.714s-1.205-20.351-4.657-25.216a10.8 10.8 0 1 0-17.608 12.502h-.005zM53.257 101.392c5.434 2.454 25.64-.266 25.64-.266S67.583 84.169 62.148 81.71a10.8 10.8 0 0 0-8.89 19.682zM65.277 143.493c4.942 3.336 25.318 4.069 25.318 4.069s-8.288-18.625-13.23-21.966a10.799 10.799 0 0 0-16.505 11.016 10.8 10.8 0 0 0 4.417 6.881zM95.03 57.945c-4.093 4.34-23.822 9.489-23.822 9.489s4.03-19.986 8.124-24.32a10.8 10.8 0 0 1 15.699 14.83zM108.463 107.341c-5.207 2.893-25.554 1.929-25.554 1.929s9.802-17.869 15.014-20.776a10.801 10.801 0 0 1 10.54 18.847zM114.929 157.162c-4.638 3.746-24.874 6.22-24.874 6.22s6.663-19.286 11.301-23.018a10.798 10.798 0 0 1 15.02 1.746 10.8 10.8 0 0 1-1.447 15.052z" fill="#6C63FF"/><path d="M66.482 11.263c.256 5.96 11.784 22.772 11.784 22.772s10.048-17.738 9.793-23.698a10.8 10.8 0 0 0-21.577.926zM50.06 45.028c3.453 4.865 22.27 12.714 22.27 12.714s-1.205-20.351-4.657-25.216a10.8 10.8 0 1 0-17.608 12.502h-.005zM53.257 101.392c5.434 2.454 25.64-.266 25.64-.266S67.583 84.169 62.148 81.71a10.8 10.8 0 0 0-8.89 19.682zM65.277 143.493c4.942 3.336 25.318 4.069 25.318 4.069s-8.288-18.625-13.23-21.966a10.799 10.799 0 0 0-16.505 11.016 10.8 10.8 0 0 0 4.417 6.881zM95.03 57.945c-4.093 4.34-23.822 9.489-23.822 9.489s4.03-19.986 8.124-24.32a10.8 10.8 0 0 1 15.699 14.83zM108.463 107.341c-5.207 2.893-25.554 1.929-25.554 1.929s9.802-17.869 15.014-20.776a10.801 10.801 0 0 1 10.54 18.847zM114.929 157.162c-4.638 3.746-24.874 6.22-24.874 6.22s6.663-19.286 11.301-23.018a10.798 10.798 0 0 1 15.02 1.746 10.8 10.8 0 0 1-1.447 15.052z" fill="#FC6681"/><path d="M131.515 156.718s-51.282-42.974-62.68-64.646C57.437 70.399 42.91 51.73 42.91 51.73" stroke="#535461" stroke-width="2" stroke-miterlimit="10"/><path d="M49.636 100.167l22.179-5.005s-5.227 23.404-22.179 5.005z" fill="#6C63FF"/><path d="M83.55 76.267L70.784 95.389s24.947 1.813 12.768-19.122zM40.909 82.192l20.28-3.558s-12.744 19.378-20.28 3.558zM70.899 65.11l-10.01 13.085S78.61 79.863 70.9 65.11zM50.697 62.501s-17.285.825-19.286 2.474c-2.001 1.649 2.574 11.32 9.16 9.744C47.159 73.142 50.698 62.5 50.698 62.5zM57.601 47.068s-7.054 12.854-6.789 15.298c.266 2.445 10.748 5.193 12.869-4.074 2.121-9.267-6.08-11.224-6.08-11.224z" fill="#6C63FF"/><path d="M34.47 55.402a4.822 4.822 0 1 1 9.194-2.91 4.822 4.822 0 0 1-9.194 2.91z" fill="#FFD037"/><path d="M42.015 50.485a4.822 4.822 0 1 1 9.194-2.911 4.822 4.822 0 0 1-9.194 2.91z" fill="#FFD037"/><path d="M361.94 167.75s-20.733-15.429 5.303-69.43c0 0 34.715-42.911 0-83.412 0 0 75.698 1.929 74.252 72.323-1.447 70.394-37.849 80.519-37.849 80.519H361.94z" fill="#6C63FF"/><path d="M381.303 167.75s5.222-37.125 19.204-59.787a48.593 48.593 0 0 0 5.878-14.82c4.672-20.555-1.992-42.05-17.088-56.76l-22.058-21.49" stroke="#535461" stroke-width="2" stroke-miterlimit="10"/><path d="M318.763 43.813s-4.763 6.23 2.199 15.631c6.962 9.402 12.7 17.358 10.381 23.201 0 0-10.502-17.463-19.05-17.709-8.549-.246-2.932-10.622 6.47-21.123z" fill="#6C63FF"/><path opacity=".1" d="M318.763 43.813a7.703 7.703 0 0 0-.964 1.953c-8.341 9.797-12.782 18.943-4.769 19.175 7.469.212 16.427 13.568 18.573 16.938-.071.26-.156.516-.256.766 0 0-10.501-17.463-19.05-17.709-8.548-.246-2.936-10.622 6.466-21.123z" fill="#000"/><path d="M309.911 51.75c0 2.193.246 3.967.55 3.967.303 0 .549-1.779.549-3.968s-.308-1.162-.612-1.162-.487-1.027-.487 1.162z" fill="#FFD037"/><path d="M306.873 54.367c1.929 1.051 3.602 1.683 3.747 1.418.144-.265-1.297-1.33-3.221-2.382-1.924-1.051-1.167-.285-1.312 0-.144.284-1.137-.087.786.964z" fill="#FFD037"/><path d="M343.912 43.813s4.764 6.23-2.198 15.631c-6.963 9.402-12.7 17.358-10.381 23.201 0 0 10.501-17.463 19.05-17.709 8.548-.246 2.941-10.622-6.471-21.123z" fill="#6C63FF"/><path opacity=".1" d="M343.912 43.813c.412.602.737 1.26.964 1.953 8.342 9.797 12.782 18.943 4.769 19.175-7.469.212-16.427 13.568-18.573 16.938.071.26.157.516.256.766 0 0 10.516-17.468 19.064-17.704 8.549-.236 2.932-10.627-6.48-21.128z" fill="#000"/><path d="M352.774 51.75c0 2.193-.246 3.967-.549 3.967-.304 0-.55-1.779-.55-3.968s.308-1.162.612-1.162.487-1.027.487 1.162z" fill="#FFD037"/><path d="M355.812 54.367c-1.929 1.051-3.602 1.683-3.747 1.418-.144-.265 1.297-1.33 3.221-2.382 1.924-1.051 1.167-.285 1.312 0 .144.284 1.137-.087-.786.964z" fill="#FFD037"/><path d="M.5 311.368l42.241-185.859h15.694c.627-7.102 1.046-13.983 1.206-20.463 0 0 56.893 12.449 102.264-23.567 45.37-36.017 98.711 3.114 98.711 3.114l.207-.15v-.071.091c3.703-2.623 54.801-37.641 98.489-2.955 45.351 36.016 102.264 23.567 102.264 23.567.159 6.562.584 13.5 1.225 20.67h14.561L520.5 312.039s-175.358 6.566-236.809.511c-2.203 4.657-11.701 8.158-23.08 8.158-12.787 0-23.187-4.422-23.548-9.933-47.835 3.641-150.764 9.46-236.563.593z" fill="url(#paint0_linear)"/><path d="M472.844 127.143l42.232 182.417s-232.479 8.708-251.201-3.481c0 0-144.322 14.585-257.95 2.83l41.358-181.978 425.561.212z" fill="#E2E2EC"/><path opacity=".1" d="M458.476 133.445l39.373 170.069s-216.747 8.12-234.2-3.245c0 0-134.554 13.597-240.493 2.638l38.572-169.665 396.748.203z" fill="#000"/><path d="M63.826 106.903s55.727 12.188 100.133-23.076c44.406-35.265 96.652 3.047 96.652 3.047s52.241-38.312 96.647-3.047c44.406 35.264 100.133 23.076 100.133 23.076 1.755 70.963 34.826 185.898 34.826 185.898s-60.949 16.542-141.492-16.977c-80.543-33.519-90.119 11.755-90.119 11.755s-9.575-45.279-90.119-11.755c-80.543 33.524-141.492 16.977-141.492 16.977s33.09-114.935 34.83-185.898z" fill="#F1F2FB"/><path opacity=".1" d="M368.14 288.895s-73.576-16.542-107.52 7.835c0 0-32.651-29.604-108.402-6.528" fill="#000"/><path d="M260.611 318.051c-12.745 0-23.076-4.484-23.076-10.014 0-5.531 10.331-10.015 23.076-10.015 12.744 0 23.076 4.484 23.076 10.015 0 5.53-10.332 10.014-23.076 10.014z" fill="#E8EAF8"/><path opacity=".1" d="M260.828 86.657s-16.543 84.024-.434 202.441z" fill="#000"/><path opacity=".1" d="M441.451 133.243s-34.652 8.051-64.646 0c-29.995-8.052-85.066-34.392-103.181 0M441.451 148.045s-34.652 8.052-64.646 0c-29.995-8.052-94.941-7.618-103.181 0M441.451 174.143s-34.652 8.052-64.646 0c-29.995-8.051-85.066-34.391-103.181 0M441.451 188.965s-34.652 8.052-64.646 0c-29.995-8.052-94.941-7.618-103.181 0M79.766 133.243s34.652 8.051 64.646 0c29.995-8.052 85.066-34.392 103.181 0M79.766 148.045s34.652 8.052 64.646 0c29.995-8.052 94.941-7.618 103.181 0M79.766 174.143s34.652 8.052 64.646 0c29.995-8.051 85.066-34.391 103.181 0M79.766 188.965s34.652 8.052 64.646 0c29.995-8.052 94.941-7.618 103.181 0" stroke="#000" stroke-width="4" stroke-miterlimit="10"/><path d="M79.062 345.688c-1.447-1.104-2.82-2.411-3.24-3.987a3.375 3.375 0 0 1 2.261-4.06c2.078-.646 4.296.525 5.984 1.711 1.687 1.187 3.61 2.541 5.814 2.291-2.28-1.649-3.375-4.34-2.738-6.75a2.62 2.62 0 0 1 .761-1.375c1.153-1.007 3.245-.573 4.624.217 4.393 2.522 5.617 7.387 5.641 11.77.444-1.582.068-3.226.082-4.851.015-1.625.555-3.418 2.233-4.291a7.974 7.974 0 0 1 3.404-.651c1.972-.058 4.175.101 5.52 1.283 1.673 1.446 1.239 3.92-.217 5.53-1.456 1.61-3.674 2.623-5.713 3.737-1.557.848-3.129 1.837-4.084 3.177a2.907 2.907 0 0 0-.304.569H86.713a35.551 35.551 0 0 1-7.651-4.32z" fill="#6C63FF"/><path d="M164.639 172.065s-.121.695-.323 1.929c.106.193.212.386.323.574 3.953 6.653 4.561 16.238 4.189 24.107a78.853 78.853 0 0 1-3.312 18.708 87.438 87.438 0 0 0-3.375 24.3 17.663 17.663 0 0 1-5.535 4.031c-.106.323-.217.651-.313.964a98.453 98.453 0 0 0-3.679 18.616l-1.244 15.747s-9.532 35.641-12.43 42.27c-2.064 4.716-1.61 14.465-1.177 19.691 1.24 3.515 2.749 6.866 4.079 7.233 2.411.684 4.822 6.489 1.312 9.406a5.583 5.583 0 0 1-.844.579l-.14.077-.255.13-.376.169-.193.072-.4.135-.174.053c-.188.053-.381.106-.588.155a10.527 10.527 0 0 1-7.155-1.133c-2.642-.396-4.991-1.813-6.75-3.245l.048 2.512h-2.893l.135-5.019c-.521-.584-.81-.965-.81-.965s-.087-3.032-.42-6.562l.213 11.326h-2.893l.781-20.901a3.334 3.334 0 0 0-.574-.854c-2.411-2.411 1.755-10.188 3.91-11.485-.964-5.11-4.643-12.492-8.886-26.643-6.215-20.733 1.659-41.027 1.659-41.027v-15.91a71.037 71.037 0 0 1-3.317-1.51s2.893-16.991 0-29.006c-1.876-7.767-2.363-14.667-.796-21.268-2.083-7.174-3.766-12.714-3.766-12.714l-2.892-29.835c-.738-4.48-1.235-8.313-1.553-11.572a14.78 14.78 0 0 1-.111-1.22c-.53-6.07-.415-10.125-.067-12.777a20.275 20.275 0 0 1-.174-3.669 14.445 14.445 0 0 1-.077-1.895c-.415-.482-.82-.964-1.205-1.446a20.775 20.775 0 0 1-2.6-4.147c-3.186-6.012-3.278-13.355 1.172-18.654 2.739-3.264 3.592-6.78 5.96-10.256 2.165-3.182 2.574-6.996 3.095-10.66a130.53 130.53 0 0 1 2.652-13.534c.333-1.311 2.155-2.117 3.062-3.206 1.75-2.107 6.861-2.035 9.807-2.503 4.946-.785 10.303-1.518 14.806.425 3.134 1.355 5.386 3.818 7.835 5.993 2.638 2.338 8.038 3.466 8.877 6.268.747 1.07.786 2.41-.482 4.204-1.225 1.726-3.154 2.96-4.952 4.253-.231.164-.448.337-.675.482a17.604 17.604 0 0 1-9.571 18.63c.048.314.102.622.159.926a55.792 55.792 0 0 0 2.18 7.96c.535 1.601 6.726 4.397 11.089 6.191a5.562 5.562 0 0 1 1.77-1.22c3.317-.829 14.503 5.386 15.332 7.459.232.579-.376 2.179-1.364 4.195a14.996 14.996 0 0 1-.449 2.719c.246 4.243-.197 11.09-2.333 22.097l-3.322 30.25zm-46.528 4.663c.154-.294.313-.593.482-.902 4.605-9.31 7.338-24.363.743-33.341a42.2 42.2 0 0 1-1.765.159c-.391 12.218-.164 32.305-.164 32.305s.26.675.704 1.779zm16.437 70.963a2180.064 2180.064 0 0 1-3.062 15.13 39.789 39.789 0 0 0 .241 17.511l3.896-11.687.906-20.564.058-.844a68.395 68.395 0 0 1-1.866-.342l-.173.796z" fill="url(#paint1_linear)"/><path d="M131.539 261.924a39.17 39.17 0 0 0 .236 17.237 22.34 22.34 0 0 0 .965 3.158l-1.1 44.695-.125 5.068a25.473 25.473 0 0 1-3.086.453c-.962.1-1.931.1-2.893 0-.964-.121-1.813-.41-2.266-.964-.453-.555-.55-1.447.092-2.744a8.162 8.162 0 0 0 .786-4.604 15.666 15.666 0 0 0-.198-1.394c-.964-5.029-4.566-12.299-8.746-26.224-6.119-20.395 1.629-40.38 1.629-40.38V237.45l19.986-2.04s-.965 5.053-2.291 11.62a1210.107 1210.107 0 0 1-2.989 14.894z" fill="#FDC2CC"/><path opacity=".1" d="M131.539 261.924a39.17 39.17 0 0 0 .236 17.237 22.34 22.34 0 0 0 .965 3.158l-1.1 44.695-.125 5.068a25.473 25.473 0 0 1-3.086.453c-.962.1-1.931.1-2.893 0-.964-.121-1.813-.41-2.266-.964-.453-.555-.55-1.447.092-2.744a8.162 8.162 0 0 0 .786-4.604 15.666 15.666 0 0 0-.198-1.394c-.964-5.029-4.566-12.299-8.746-26.224-6.119-20.395 1.629-40.38 1.629-40.38V237.45l19.986-2.04s-.965 5.053-2.291 11.62a1210.107 1210.107 0 0 1-2.989 14.894z" fill="#000"/><path d="M159.277 237.45a61.208 61.208 0 0 0-3.312 8.596 96.986 96.986 0 0 0-3.621 18.322l-1.225 15.501s-9.383 35.077-12.237 41.605c-2.03 4.643-1.586 14.238-1.157 19.392a93.37 93.37 0 0 0 .342 3.453l-4.161-5.097-5.453-6.687-2.488-3.052-.545-.666a25.064 25.064 0 0 0 1.592-4.257 72.844 72.844 0 0 0 2.483-13.669c1.224-12.642 1.629-29.778 1.629-29.778l.646-1.928 3.858-11.529.892-20.25.332-7.497 22.425-2.459z" fill="#FDC2CC"/><path d="M127.725 325.437a29.033 29.033 0 0 1 4.851 9.59c1.297 4.412 3.577 11.191 5.491 11.736 2.855.815 5.709 8.973-1.629 10.607-7.339 1.635-13.462-6.528-13.462-6.528s-.41-14.276-2.854-16.721c-2.445-2.444 2.039-10.607 4.079-11.422.815-.333 2.194 1.017 3.524 2.738z" fill="#5F5D7E"/><path opacity=".1" d="M138.882 356.146a9.824 9.824 0 0 1-5.728-.521 12.807 12.807 0 0 1-8.013-10.998c-.347-4.368-1.08-10.241-2.57-11.73-1.929-1.929.482-7.426 2.555-10.053a1.098 1.098 0 0 0-.92-.145c-2.04.815-6.529 8.973-4.08 11.422 2.45 2.449 2.855 16.721 2.855 16.721s6.109 8.158 13.452 6.519a6.765 6.765 0 0 0 2.922-1.345 7.251 7.251 0 0 1-.473.13z" fill="#000"/><path d="M120.7 334.463l-.786 21.07h2.855l-.396-21.055a.808.808 0 0 0-.839-.767.808.808 0 0 0-.834.752z" fill="#5F5D7E"/><path opacity=".15" d="M120.7 334.463l-.786 21.07h2.855l-.396-21.055a.808.808 0 0 0-.839-.767.808.808 0 0 0-.834.752z" fill="#000"/><path d="M131.394 326.662a29.033 29.033 0 0 1 4.851 9.59c1.297 4.412 3.577 11.191 5.492 11.736 2.854.815 5.708 8.973-1.63 10.607-7.338 1.635-13.462-6.538-13.462-6.538s-.41-14.276-2.854-16.721c-2.445-2.444 2.039-10.607 4.079-11.422.824-.304 2.194 1.027 3.524 2.748z" fill="#5F5D7E"/><path opacity=".1" d="M142.551 357.361a9.82 9.82 0 0 1-5.727-.521 12.796 12.796 0 0 1-8.014-10.998c-.347-4.368-1.08-10.241-2.57-11.73-1.928-1.929.482-7.426 2.556-10.053a1.107 1.107 0 0 0-.921-.145c-2.04.815-6.529 8.973-4.079 11.422 2.449 2.45 2.849 16.721 2.849 16.721s6.119 8.158 13.462 6.529a6.755 6.755 0 0 0 2.922-1.346c-.174.049-.314.092-.478.121z" fill="#000"/><path d="M124.374 335.664l-.786 21.07h2.874l-.395-21.055a.81.81 0 0 0-.839-.767.807.807 0 0 0-.854.752z" fill="#5F5D7E"/><path opacity=".15" d="M124.374 335.664l-.786 21.07h2.874l-.395-21.055a.81.81 0 0 0-.839-.767.807.807 0 0 0-.854.752z" fill="#000"/><path d="M158.867 109.786l-16.316 25.698-19.17 2.45s-11.827-23.25-11.422-24.474c.405-1.225 6.528-3.669 12.237-8.158 5.709-4.489-1.225-23.25-1.225-23.25l18.761 1.63c-.073.25-.145.482-.198.762-.747 3.168-.482 6.683.092 9.773a55.009 55.009 0 0 0 2.15 7.821c.815 2.444 15.091 7.748 15.091 7.748z" fill="#FDC2CC"/><path opacity=".1" d="M136.843 235.41s-.965 5.053-2.29 11.62a93.603 93.603 0 0 1-17.7-5.651v-3.929l19.99-2.04zM159.277 237.45a61.208 61.208 0 0 0-3.312 8.596c-5.675 2.561-12.734 2.488-19.45 1.346l.332-7.498 22.43-2.444z" fill="#000"/><path d="M164.171 175.045c3.891 6.552 4.489 15.978 4.123 23.751a77.628 77.628 0 0 1-3.26 18.408 86.119 86.119 0 0 0-3.327 23.92c-13.866 15.091-48.128-2.04-48.128-2.04s2.854-16.721 0-28.553c-1.986-8.225-2.411-15.472-.395-22.415a35.293 35.293 0 0 1 4.064-8.992 32.423 32.423 0 0 0 1.572-2.826c4.725-9.556 7.454-25.255-.145-33.914a15.88 15.88 0 0 0-2.651-2.411c-6.625-4.797-9.643-10.125-10.916-14.633a19.678 19.678 0 0 1-.483-8.616c.815-4.489 12.237-8.568 12.237-8.568-.409 13.462 16.721 24.879 16.721 24.879s19.581-25.289 22.84-26.104c3.259-.814 14.276 5.304 15.091 7.344.815 2.039-8.973 17.13-8.973 17.13s-6.123 30.588 1.63 43.64z" fill="#D39999"/><path opacity=".1" d="M116.038 139.968c-6.625-4.797-9.643-10.125-10.916-14.633.318-6.75 1.929-7.796 1.929-7.796s13.476 13.047 12.251 17.55c-.279 1.037-.482 3.746-.612 7.31a15.84 15.84 0 0 0-2.652-2.431zM138.882 232.966c-2.854 8.568-17.131-6.528-17.541-13.052-.26-4.175-4.864-20.544-8.143-31.793a35.362 35.362 0 0 1 4.064-8.992 32.162 32.162 0 0 0 1.572-2.826c1.548 3.805 7.763 19.397 7.401 24.036-.409 5.303 2.45 13.052 2.45 13.052s13.051 11.007 10.197 19.575z" fill="#000"/><path d="M106.25 117.534s-4.489 2.854 0 30.183l2.854 29.367s11.013 36.302 11.423 42.83c.409 6.528 14.681 21.615 17.54 13.052 2.859-8.563-10.197-19.58-10.197-19.58s-2.855-7.749-2.45-13.052c.405-5.304-7.748-24.879-7.748-24.879s-.41-35.892.815-40.38c1.225-4.489-12.237-17.541-12.237-17.541z" fill="#FDC2CC"/><path opacity=".1" d="M166.615 114.27s5.304 1.224 0 28.553l-3.264 29.777s-7.343 42.83-6.933 47.733c.41 4.904-15.911 17.541-17.131 10.608-1.22-6.934 8.158-18.356 8.158-18.356s4.089-8.987 4.089-25.713l.815-13.462 5.703-48.533 8.563-10.607z" fill="#000"/><path d="M167.445 114.27s5.303 1.224 0 28.553l-3.264 29.777s-7.344 42.83-6.934 47.733c.41 4.904-15.911 17.541-17.13 10.608-1.22-6.934 8.157-18.356 8.157-18.356s4.08-8.973 4.08-25.698l.814-13.462 5.699-48.548 8.578-10.607z" fill="#FDC2CC"/><path opacity=".1" d="M170.082 115.697s2.45 13.052-14.681 17.541c-17.131 4.489 2.039-15.506 2.039-15.506s6.524-9.783 12.642-2.035z" fill="#000"/><path d="M169.677 115.292s2.445 13.047-14.686 17.536c-17.131 4.489 2.04-15.501 2.04-15.501s6.528-9.788 12.646-2.035z" fill="#D39999"/><path opacity=".1" d="M104.413 115.697s-2.449 13.052 14.682 17.541c17.131 4.489-2.035-15.506-2.035-15.506s-6.509-9.783-12.647-2.035z" fill="#000"/><path d="M104.823 115.292s-2.469 13.047 14.682 17.536c17.15 4.489-2.04-15.501-2.04-15.501s-6.523-9.788-12.642-2.035z" fill="#D39999"/><path opacity=".1" d="M141.626 94.212c-2.252.656-4.774-4.619-7.435-4.619-2.821 0-5.477 5.646-7.83 4.45a70.704 70.704 0 0 0-2.98-11.18l18.153 1.6c-.742 3.149-.482 6.659.092 9.75z" fill="#000"/><path d="M133.781 95.1c-9.573 0-17.333-7.76-17.333-17.334 0-9.573 7.76-17.333 17.333-17.333 9.573 0 17.334 7.76 17.334 17.333 0 9.573-7.761 17.334-17.334 17.334z" fill="#FDC2CC"/><path opacity=".1" d="M156.432 70.283c-1.205 1.697-3.105 2.893-4.874 4.185a53.467 53.467 0 0 0-6.181 5.174 18.252 18.252 0 0 0-3.457 4.281c-1.374 2.565-1.558 5.468-1.722 8.293l-1.682 29.185c-.111 1.928-.222 3.9.27 5.786a19.748 19.748 0 0 0 2.087 4.57c2.223 3.944 4.509 7.966 8.086 11.09 1.196 1.036 2.652 2.377 2.02 3.737-.511 1.094-2.083 1.446-3.433 1.605-5.665.762-11.942 1.413-16.711-1.35-1.798-1.041-3.288-2.536-5.304-3.182-2.806-.892-5.901.038-8.891.034-3.172 0-6.2-1.056-9.16-2.098a3.277 3.277 0 0 1-1.505-.848 2.525 2.525 0 0 1-.429-1.153c-.448-2.367-.873-4.821-.14-7.14.796-2.512 2.893-4.687 3.13-7.281.308-3.606-3.019-6.543-5.41-9.508-5.092-6.311-6.225-15.4-.998-21.624 2.695-3.211 3.539-6.673 5.868-10.092 2.131-3.129 2.536-6.885 3.047-10.491a128.36 128.36 0 0 1 2.613-13.322c.323-1.292 2.121-2.083 3.013-3.158 1.727-2.073 6.751-2.001 9.643-2.464 4.87-.772 10.126-1.495 14.576.42 3.086 1.33 5.304 3.76 7.714 5.896 3.414 3.047 11.697 4.002 7.83 9.455z" fill="#000"/><path d="M156.023 69.468c-1.206 1.698-3.105 2.893-4.875 4.185a53.613 53.613 0 0 0-6.181 5.184 18.28 18.28 0 0 0-3.457 4.281c-1.374 2.565-1.557 5.468-1.721 8.293l-1.697 29.175c-.111 1.929-.222 3.901.27 5.786a19.774 19.774 0 0 0 2.087 4.571c2.223 3.944 4.508 7.965 8.086 11.089 1.196 1.037 2.652 2.377 2.02 3.737-.511 1.094-2.083 1.446-3.433 1.605-5.665.762-11.943 1.413-16.711-1.35-1.798-1.041-3.288-2.536-5.304-3.182-2.806-.892-5.901.039-8.891.034-3.172 0-6.2-1.056-9.16-2.097a3.288 3.288 0 0 1-1.505-.849 2.514 2.514 0 0 1-.429-1.152c-.448-2.368-.873-4.822-.14-7.141.796-2.512 2.893-4.687 3.129-7.281.309-3.606-3.018-6.542-5.409-9.508-5.092-6.311-6.225-15.4-.998-21.624 2.695-3.211 3.539-6.673 5.867-10.091 2.132-3.13 2.537-6.885 3.048-10.492a128.36 128.36 0 0 1 2.613-13.322c.323-1.292 2.121-2.083 3.013-3.158 1.726-2.073 6.75-2 9.643-2.464 4.87-.771 10.126-1.494 14.576.42 3.086 1.33 5.303 3.76 7.714 5.896 3.452 3.048 11.712 4.002 7.845 9.455z" fill="#865A61"/></g><defs><linearGradient id="paint0_linear" x1="260.5" y1="320.703" x2="260.5" y2="66.252" gradientUnits="userSpaceOnUse"><stop stop-color="gray" stop-opacity=".25"/><stop offset=".54" stop-color="gray" stop-opacity=".12"/><stop offset="1" stop-color="gray" stop-opacity=".1"/></linearGradient><linearGradient id="paint1_linear" x1="67575.3" y1="251501" x2="67575.3" y2="51153.6" gradientUnits="userSpaceOnUse"><stop stop-color="gray" stop-opacity=".25"/><stop offset=".54" stop-color="gray" stop-opacity=".12"/><stop offset="1" stop-color="gray" stop-opacity=".1"/></linearGradient><clipPath id="clip0"><path fill="#fff" transform="matrix(-1 0 0 1 520.5 0)" d="M0 0h520v376.251H0z"/></clipPath></defs></svg>