<svg width="510" height="426" fill="none" xmlns="http://www.w3.org/2000/svg"><g clip-path="url(#clip0)"><path opacity=".1" d="M299.097 71.992c-32.27-1.179-63.01-12.123-92.358-24.099-29.348-11.976-58.417-25.246-89.914-31.59-20.26-4.08-43.43-4.657-59.75 6.753-15.71 11.002-20.786 29.94-23.514 47.532-2.054 13.233-3.26 27.158 2.369 39.548 3.904 8.602 10.84 15.831 15.631 24.098 16.689 28.667 4.897 64.019-13.188 92.01-8.476 13.133-18.324 25.67-24.866 39.637-6.542 13.966-9.573 29.992-3.85 44.252 5.68 14.145 19.207 24.748 33.857 32.214 29.762 15.166 64.819 19.504 99.029 21.961 75.704 5.443 151.807 3.085 227.711.728 28.092-.875 56.303-1.76 83.936-6.323 15.347-2.536 31.188-6.554 42.332-16.267 14.141-12.327 17.646-33.204 8.173-48.658-15.901-25.927-59.834-32.366-70.963-60.194-6.113-15.313.17-32.371 9.055-46.579 19.067-30.469 51.023-57.202 52.708-92.03 1.157-23.926-14.21-47.877-37.964-59.199-24.896-11.908-59.43-10.399-77.789 9.242-18.917 20.237-52.154 28.001-80.645 26.964z" fill="#3C70FF"/><path d="M261.497 361.741l-170.665-.875-16.957-41.79 59.963-4.574-10.451-45.819 118.599-16.151-113.568-41.481 10.032-2.504 182.616 31.302-10.057 71.505-14.375 39.296-35.137 11.091z" fill="#3C70FF"/><path d="M93.45 343.363s10.471-1.76 16.753 6.014c0 0-4.607 3.814-14.52-1.467l-2.233-4.547zM92.353 343.19s-6.681 8.639-3.39 18.257c0 0 5.444-2.289 6.038-13.951l-2.648-4.306zM86.35 328.988s4.188-8.074 20.941 3.227c0 0-2.233 5.427-9.633 4.987-7.4-.44-9.354-3.961-11.308-8.214zM85.268 328.406s-8.691-1.048-9.534 19.855c0 0 5.51 1.2 9.424-5.412 3.914-6.611 2.309-10.32.11-14.443zM80.207 311.731s4.886-14.229 22.617-4.107c0 0-4.05 13.055-20.802 8.948l-1.816-4.841zM74.762 290.461s9.214-14.375 25.549-1.048c0 0-5.725 13.496-24.153 6.161l-1.396-5.113zM72.807 270.218s10.75-13.207 26.925 0c0 0-10.192 11.589-26.925 3.374v-3.374zM71.132 250.557s10.89-13.788 26.386-.733c0 0-12.285 12.175-26.386 3.96v-3.227zM72.11 233.101s11.467-17.749 25.967-5.72c0 0-12.286 15.255-25.968 9.094v-3.374zM74.762 212.712s12.146-17.603 26.247-4.107c0 0-14.38 15.255-26.247 7.334v-3.227zM78.81 194.486s14.38-16.544 26.925-9.954c0 0-14.983 17.571-27.553 14.344l.628-4.39zM83.836 177.208s16.594-20.263 26.247-13.495c0 0-12.226 15.717-27.423 17.288l1.176-3.793zM91.091 157.17s14.525-16.544 25.135-12.437c0 0-12.425 17.162-27.084 17.602l1.95-5.165zM97.658 138.425s16.055-15.842 23.036-13.055c0 0-11.588 17.603-23.734 16.576l.698-3.521zM104.081 121.116s13.821-18.928 21.365-17.461c0 0-8.382 16.875-21.365 19.384v-1.923zM111.051 97.777s12.216-14.506 18.818-14.475c0 0-9.644 19.384-19.322 19.206l.504-4.73zM115.18 82.239l11.802-30.218s.588 27.316-13.303 35.823l1.501-5.605zM119.971 48.915s1.954-25.235.698-27.29c0 0 8.436 20.982-.778 38.438l.08-11.148zM79.748 311.396s-12.236-7.969-20.16 11.525c0 0 10.89 7.596 21.6-6.554l-1.44-4.971zM74.368 289.649s-15.008-7.193-22.288 13.16c0 0 11.593 8.382 23.654-8.015l-1.366-5.145zM72.11 271.429s-10.751-13.207-26.926 0c0 0 10.192 11.588 26.925 3.373v-3.373zM70.763 250.557s-10.89-13.788-26.387-.733c0 0 12.286 12.175 26.387 3.96v-3.227z" fill="#3C70FF"/><path d="M72.11 233.604s-7.64-19.881-24.243-11.331c0 0 8.975 17.628 23.564 14.632l.678-3.301zM75.725 212.612s-7.594-20.227-24.432-10.849c0 0 10.31 18.54 23.684 13.972l.748-3.123zM80.431 194.586s-2.991-22.176-16.953-24.162c0 0 2.962 23.386 15.074 28.159l1.88-3.997zM84.19 177.25s-1.166-26.718-12.709-27.65c0 0 .389 20.279 11.408 31.433l1.302-3.783zM92.288 156.421s-3.44-22.218-14.46-24.932c0 0 1.366 21.516 13.368 30.385l1.092-5.453zM98.965 138.609s-.115-23.145-6.846-26.545c0 0-4.174 20.955 4.896 29.499l1.95-2.954zM104.594 120.854s-.943-23.831-7.913-27.19c0 0-2.384 18.861 6.871 28.752l1.042-1.562zM112.023 99.68s-.04-19.385-5.016-23.932c0 0-4.946 21.233 2.418 27.829l2.598-3.898z" fill="#3C70FF"/><path d="M114.596 81.286l-4.841-32.261s-6.577 26.435 5.071 38.086l-.23-5.825zM115.538 49.219S103.113 27.53 103.367 25.12c0 0 1.321 22.731 16.953 34.052l-4.782-9.953zM116.994 42.812S105.267 12.007 99.962 9.514c0 0 16.753 8.948 18.01 32.418l-.978.88z" fill="#3C70FF"/><path d="M110.487 102.691l-.802-.256c9.897-33.911 12.365-55.532 6.955-60.954l.574-.64c5.739 5.722 3.41 27.107-6.727 61.85z" fill="#444053"/><path d="M83.233 182.091l-1.187-.445a260.154 260.154 0 0 1 3.371-9.367c10.331-27.054 19.127-52.221 24.766-71.542l1.032-.524c-5.649 19.358-14.29 45.489-24.631 72.579a213.31 213.31 0 0 0-3.35 9.299z" fill="#444053"/><path d="M108.204 368.74c-.16-.184-16.2-19.164-27.384-51.566-6.553-18.97-10.2-38.913-10.805-59.083-.767-25.215 4.268-53.368 12.894-78.944l.938 1.152c-19.366 57.402-11.673 106.589-1.466 136.21 11.064 32.108 26.925 50.879 27.08 51.068l-1.257 1.163z" fill="#444053"/><path d="M358.866 328.443s-11.304 14.496-2.329 36.409l-90.249 41.125-8.66 1.907-3.989-18.336 2.667-23.14v-12.646l102.56-25.319z" fill="#D5D6DB"/><path d="M73.874 319.076l124.913-23.926 165.514 27.703-102.804 38.888-187.623-42.665z" fill="#3C70FF"/><path d="M73.874 319.076l124.913-23.926 165.514 27.703-102.804 38.888-187.623-42.665z" fill="#3C70FF"/><path d="M73.874 319.07s-11.682 23.256 1.78 44.735l185.235 42.172s-11.498-18.524.593-44.236L73.874 319.07z" fill="#3C70FF"/><path opacity=".1" d="M73.874 319.07s-11.682 23.256 1.78 44.735l185.235 42.172s-11.498-18.524.593-44.236L73.874 319.07z" fill="#000"/><path opacity=".1" d="M79.394 327.133s-6.676 17.016 0 28.028v-28.028z" fill="#000"/><path d="M260.889 405.977l103.412-46.363s5.784 1.309 2.044 5.762c-3.74 4.453-103.462 45.054-103.462 45.054L75.654 363.805l185.235 42.172z" fill="#3C70FF"/><path opacity=".1" d="M260.889 405.977l103.412-46.363s5.784 1.309 2.044 5.762c-3.74 4.453-103.462 45.054-103.462 45.054L75.654 363.805l185.235 42.172z" fill="#000"/><path opacity=".1" d="M252.412 366.424s-9.972 12.573 0 31.433v-31.433zM300.691 366.212l-44.73 15.679.158.497 44.73-15.679-.158-.497zM309.651 364.651l-53.704 21.457.177.489 53.704-21.456-.177-.49zM317.879 364.576l-61.632 26.505.189.485 61.631-26.505-.188-.485zM326.826 362.306l-69.86 33.157.206.478 69.859-33.157-.205-.478zM334.343 362.317l-76.824 35.281.2.48 76.823-35.281-.199-.48zM350.784 359.383l-92.106 41.798.197.481 92.107-41.798-.198-.481z" fill="#000"/><path opacity=".3" d="M120.28 321.632l87.756-19.383 53.461 10.739-71.91 24.361-69.307-15.717z" fill="#fff"/><path d="M364.301 322.853s4.537 1.923 1.874 4.893c-2.662 2.97-104.693 33.995-104.693 33.995l102.819-38.888z" fill="#3C70FF"/><path d="M408.373 278.056s-11.298 14.49-2.323 36.41l-90.249 41.124-8.661 1.918-3.989-18.336 2.708-23.135v-12.662l102.514-25.319z" fill="#D5D6DB"/><path d="M123.386 268.683l124.907-23.92 165.52 27.703-102.804 38.888-187.623-42.671zM123.367 268.683s-11.688 23.256 1.775 44.735l185.234 42.172s-11.493-18.54.613-44.242l-187.622-42.665z" fill="#3A3768"/><path opacity=".1" d="M123.367 268.683s-11.688 23.256 1.775 44.735l185.234 42.172s-11.493-18.54.613-44.242l-58.577-13.322-129.045-29.343z" fill="#000"/><path opacity=".1" d="M128.901 276.746s-6.671 17.01 0 28.028v-28.028z" fill="#000"/><path d="M310.396 355.59l103.417-46.363s5.779 1.309 2.039 5.762c-3.739 4.453-103.462 45.054-103.462 45.054l-187.228-46.625 185.234 42.172z" fill="#3A3768"/><path opacity=".1" d="M310.396 355.59l103.417-46.363s5.779 1.309 2.039 5.762c-3.739 4.453-103.462 45.054-103.462 45.054l-187.228-46.625 185.234 42.172z" fill="#000"/><path opacity=".1" d="M301.919 316.037s-9.972 12.573 0 31.433v-31.433zM350.202 315.83l-44.73 15.679.158.497 44.73-15.679-.158-.497zM359.168 314.267l-53.704 21.457.178.489 53.703-21.456-.177-.49zM367.388 314.185l-61.631 26.505.189.485 61.631-26.505-.189-.485zM376.342 311.916l-69.86 33.157.205.478 69.86-33.157-.205-.478zM383.851 311.92l-76.823 35.282.2.48 76.823-35.282-.2-.48zM400.297 308.987l-92.107 41.798.198.481 92.107-41.798-.198-.481z" fill="#000"/><path opacity=".45" d="M169.792 271.245l87.756-19.383 53.461 10.739-71.91 24.361-69.307-15.717z" fill="#fff"/><path d="M413.813 272.466s4.532 1.923 1.875 4.888c-2.658 2.965-104.679 33.994-104.679 33.994l102.804-38.882z" fill="#3A3768"/><path d="M413.06 220.413s-11.304 26.021-2.329 47.935l-90.248 29.599-8.641 1.923-3.989-18.336 2.667-23.14v-12.662l102.54-25.319z" fill="#D5D6DB"/><path d="M128.088 211.046l124.913-23.926 165.519 27.703-102.809 38.888-187.623-42.665z" fill="#3C70FF"/><path d="M128.088 211.041s-11.702 23.255 1.76 44.734l185.235 42.173s-11.498-18.541.608-44.237l-187.603-42.67z" fill="#3C70FF"/><path opacity=".1" d="M128.088 211.041s-11.702 23.255 1.76 44.734l185.235 42.173s-11.498-18.541.608-44.237l-187.603-42.67z" fill="#000"/><path opacity=".1" d="M133.608 219.103s-6.677 17.016 0 28.028v-28.028z" fill="#000"/><path d="M315.102 297.948l103.412-34.839s5.784 1.31 2.045 5.763c-3.74 4.453-103.462 33.529-103.462 33.529l-187.229-46.626 185.234 42.173z" fill="#3C70FF"/><path opacity=".1" d="M315.102 297.948l103.412-34.839s5.784 1.31 2.045 5.763c-3.74 4.453-103.462 33.529-103.462 33.529l-187.229-46.626 185.234 42.173z" fill="#000"/><path opacity=".1" d="M306.626 258.394s-9.972 12.574 0 31.433v-31.433zM354.911 258.186l-44.73 15.68.157.497 44.731-15.68-.158-.497zM363.873 256.626l-53.704 21.457.178.489 53.703-21.456-.177-.49zM372.089 256.546l-61.632 26.506.189.484 61.632-26.505-.189-.485zM381.049 254.273l-69.86 33.157.205.477 69.86-33.157-.205-.477zM388.561 254.282l-76.823 35.281.199.48 76.824-35.281-.2-.48zM405.005 251.352l-92.107 41.798.198.481 92.107-41.798-.198-.481z" fill="#000"/><path opacity=".3" d="M174.494 213.602l87.756-19.383 53.461 10.739-71.91 24.361-69.307-15.717z" fill="#fff"/><path d="M418.515 214.823s4.537 1.923 1.875 4.893c-2.663 2.971-104.679 33.995-104.679 33.995l102.804-38.888zM199.156 55.793s-18.948-1.2-16.734 12.768c0 0-.444 2.467 1.685 3.588 0 0 .035-1.048 1.945-.686a8.096 8.096 0 0 0 2.064.105 4.188 4.188 0 0 0 2.518-1.09s5.33-2.316 7.405-11.473c0 0 1.535-1.996 1.495-2.51l-3.211 1.436s1.092 2.425.235 4.442c0 0-.105-4.353-.723-4.253-.125 0-1.661.843-1.661.843s1.88 4.228.459 7.298c0 0 .539-5.208-1.047-6.994l-2.254 1.383s2.199 4.364.708 7.926c0 0 .384-5.464-1.181-7.59l-2.045 1.675s2.07 4.302.808 7.256c0 0-.164-6.36-1.246-6.842 0 0-1.79 1.656-2.06 2.337 0 0 1.416 3.143.534 4.772 0 0-.534-4.238-.997-4.259 0 0-1.78 2.808-1.965 4.715.086-1.778.614-3.5 1.531-4.998a5.26 5.26 0 0 0-2.723 1.483s.275-1.986 3.167-2.158c0 0 1.47-2.133 1.864-2.258 0 0-2.877-.257-4.617.555 0 0 1.536-1.87 5.141-1.048l1.994-1.729s-3.779-.523-5.385.058c0 0 1.85-1.655 5.929-.45l2.199-1.378s-3.226-.728-5.146-.467c0 0 2.024-1.147 5.789.095l1.566-.739s-2.359-.487-3.052-.566c-.693-.078-.728-.277-.728-.277a7.866 7.866 0 0 1 4.438.523s3.365-1.273 3.301-1.493z" fill="#3C70FF"/><path opacity=".1" d="M465.713 113.2s-18.947-1.199-16.733 12.767c0 0-.444 2.468 1.685 3.589 0 0 .035-1.048 1.945-.686.681.12 1.374.155 2.064.105a4.185 4.185 0 0 0 2.493-1.09s5.335-2.316 7.404-11.473c0 0 1.536-1.996 1.496-2.51l-3.201 1.436s1.092 2.425.234 4.442c0 0-.104-4.353-.718-4.254-.124 0-1.665.844-1.665.844s1.88 4.228.464 7.298c0 0 .538-5.208-1.052-6.994l-2.254 1.383s2.199 4.364.708 7.926c0 0 .384-5.464-1.182-7.591l-2.039 1.677s2.064 4.301.803 7.255c0 0-.165-6.36-1.247-6.842 0 0-1.785 1.656-2.059 2.337 0 0 1.416 3.143.538 4.772 0 0-.538-4.238-.997-4.259 0 0-1.78 2.808-1.964 4.715a10.53 10.53 0 0 1 1.535-4.998 5.284 5.284 0 0 0-2.727 1.483s.279-1.985 3.166-2.158c0 0 1.471-2.133 1.865-2.264 0 0-2.872-.251-4.617.561 0 0 1.536-1.87 5.141-1.048l1.994-1.729s-3.784-.523-5.385.058c0 0 1.845-1.655 5.928-.45l2.194-1.378s-3.226-.728-5.145-.467c0 0 2.024-1.147 5.789.095l1.57-.739s-2.363-.487-3.056-.566c-.693-.078-.728-.277-.728-.277a7.795 7.795 0 0 1 4.437.524s3.376-1.274 3.316-1.494zM231.067 142.077s-8.257-17.985-18.768-9.121c0 0-2.269.796-2.159 3.295 0 0 .873-.476 1.496 1.451.233.682.541 1.332.917 1.939a4.349 4.349 0 0 0 2.139 1.781s4.523 3.761 13.144 1.194c0 0 2.408.435 2.802.131l-2.752-2.237s-1.496 2.185-3.58 2.379c0 0 3.57-2.216 3.186-2.73-.08-.104-1.496-1.115-1.496-1.115s-2.598 3.787-5.839 3.981c0 0 4.587-2.043 5.295-4.374l-2.243-1.394s-2.558 4.149-6.243 4.516c0 0 4.727-2.31 5.729-4.783l-2.383-1.048s-2.568 3.992-5.64 4.28c0 0 5.206-3.253 5.076-4.484 0 0-2.248-.828-2.946-.749 0 0-1.905 2.823-3.7 2.823 0 0 3.256-2.561 3.056-2.975 0 0-3.201-.262-4.886.524a9.307 9.307 0 0 1 4.901-1.048 5.348 5.348 0 0 0-2.563-1.776s1.785-.713 3.336 1.849c0 0 2.493.309 2.787.608 0 0-1.191-2.756-2.712-3.955 0 0 2.303.487 3.356 4.191l2.418 1.006s-1.391-3.73-2.673-4.909c0 0 2.274.885 3.266 5.239l2.214 1.341s-.962-3.316-2.119-4.946c0 0 1.94 1.3 2.742 5.354l1.381 1.08s-.747-2.405-.997-3.076c-.249-.67-.124-.806-.124-.806a8.83 8.83 0 0 1 1.735 4.322s2.667 2.399 2.847 2.242zM422.424 87.792s-8.252-17.985-18.768-9.12c0 0-2.264.796-2.159 3.295 0 0 .877-.472 1.496 1.45a9.27 9.27 0 0 0 .922 1.944 4.325 4.325 0 0 0 2.134 1.776s4.528 3.762 13.144 1.2c0 0 2.408.43 2.807.126l-2.737-2.242s-1.496 2.19-3.576 2.383c0 0 3.566-2.221 3.182-2.734-.08-.105-1.496-1.116-1.496-1.116s-2.593 3.787-5.839 3.981c0 0 4.592-2.043 5.3-4.369l-2.278-1.383s-2.553 4.144-6.243 4.516c0 0 4.727-2.316 5.734-4.788l-2.388-1.048s-2.568 3.997-5.635 4.28c0 0 5.201-3.253 5.071-4.48 0 0-2.244-.832-2.942-.748 0 0-1.904 2.818-3.704 2.818 0 0 3.261-2.562 3.061-2.976 0 0-3.201-.262-4.891.524a9.304 9.304 0 0 1 4.901-1.047 5.327 5.327 0 0 0-2.558-1.777s1.785-.712 3.336 1.85c0 0 2.493.314 2.787.613 0 0-1.191-2.761-2.717-3.96 0 0 2.303.492 3.355 4.216l2.424 1.006s-1.391-3.735-2.673-4.914c0 0 2.274.886 3.261 5.24l2.219 1.34s-.967-3.31-2.124-4.945c0 0 1.944 1.299 2.742 5.354l1.381 1.08s-.743-2.406-.997-3.076c-.254-.67-.125-.802-.125-.802a8.856 8.856 0 0 1 1.731 4.322s2.707 2.379 2.862 2.211zM448.796 176.753s-8.252-17.991-18.783-9.126c0 0-2.264.796-2.159 3.295 0 0 .877-.472 1.496 1.451a9.27 9.27 0 0 0 .917 1.944 4.328 4.328 0 0 0 2.134 1.776s4.528 3.766 13.149 1.199c0 0 2.403.435 2.802.126l-2.753-2.237s-1.495 2.19-3.58 2.384c0 0 3.566-2.222 3.182-2.735-.08-.105-1.496-1.116-1.496-1.116s-2.593 3.788-5.839 3.987c0 0 4.592-2.049 5.3-4.375l-2.248-1.393s-2.553 4.149-6.243 4.516c0 0 4.727-2.316 5.734-4.789l-2.388-1.047s-2.568 3.992-5.635 4.28c0 0 5.206-3.253 5.076-4.485 0 0-2.249-.833-2.947-.749 0 0-1.904 2.819-3.704 2.819 0 0 3.261-2.562 3.061-2.976 0 0-3.201-.262-4.891.524a9.335 9.335 0 0 1 4.906-1.048 5.318 5.318 0 0 0-2.563-1.776s1.785-.718 3.336 1.85c0 0 2.493.309 2.787.607 0 0-1.192-2.755-2.712-3.96 0 0 2.303.492 3.355 4.217l2.419 1.006s-1.391-3.735-2.673-4.909c0 0 2.274.88 3.261 5.239l2.219 1.336s-.967-3.311-2.124-4.946c0 0 1.944 1.3 2.747 5.36l1.381 1.047s-.748-2.404-.997-3.075c-.249-.67-.125-.801-.125-.801a8.797 8.797 0 0 1 1.731 4.322s2.712 2.415 2.867 2.258zM145.071 410.807c6.331 0 11.463-.602 11.463-1.346 0-.744-5.132-1.346-11.463-1.346-6.331 0-11.463.602-11.463 1.346 0 .744 5.132 1.346 11.463 1.346zM69.925 387.924c6.331 0 11.464-.603 11.464-1.346 0-.744-5.133-1.346-11.463-1.346-6.331 0-11.464.602-11.464 1.346 0 .743 5.133 1.346 11.463 1.346zM202.352 426.005c6.331 0 11.463-.603 11.463-1.346 0-.744-5.132-1.347-11.463-1.347-6.331 0-11.463.603-11.463 1.347 0 .743 5.132 1.346 11.463 1.346zM400.495 386.368c6.331 0 11.463-.602 11.463-1.346 0-.744-5.132-1.346-11.463-1.346-6.331 0-11.463.602-11.463 1.346 0 .744 5.132 1.346 11.463 1.346zM338.787 418.231c7.487 0 13.557-1.096 13.557-2.447s-6.07-2.446-13.557-2.446c-7.488 0-13.558 1.095-13.558 2.446 0 1.351 6.07 2.447 13.558 2.447z" fill="#3C70FF"/><path d="M344.835 391.193s-18.878 10.247-9.125 22.318c0 0 .918 2.619 3.57 2.436 0 0-.528-1.017 1.496-1.829a9.536 9.536 0 0 0 2.039-1.137 5.014 5.014 0 0 0 1.825-2.561s3.86-5.428.868-15.47c0 0 .389-2.84.05-3.301l-2.294 3.306s2.368 1.671 2.643 4.128c0 0-2.493-4.123-2.992-3.667-.11.094-1.137 1.807-1.137 1.807s4.109 2.929 4.413 6.732c0 0-2.314-5.328-4.812-6.087l-1.431 2.682s4.488 2.871 4.986 7.187c0 0-2.607-5.474-5.27-6.579l-1.052 2.834s4.328 2.892 4.727 6.485c0 0-3.62-6.009-4.921-5.82 0 0-.818 2.661-.708 3.484 0 0 3.056 2.148 3.111 4.259 0 0-2.822-3.746-3.256-3.5 0 0-.18 3.767.688 5.726 0 0-1.496-2.797-1.251-5.726a6.336 6.336 0 0 0-1.81 3.06s-.813-2.069 1.864-3.976c0 0 .255-2.929.564-3.29 0 0-2.897 1.488-4.129 3.311 0 0 .454-2.719 4.383-4.071l.997-2.871s-3.929 1.75-5.14 3.29c0 0 .872-2.698 5.449-3.992l1.357-2.619s-3.491 1.236-5.196 2.619c0 0 1.321-2.321 5.615-3.389l1.101-1.65s-2.533.948-3.241 1.288c-.708.341-.847.173-.847.173a8.972 8.972 0 0 1 4.542-2.169s2.498-3.243 2.324-3.421z" fill="#3C70FF"/><path d="M400.864 197.655c-3.261-9.309-21.211-10.184-28.999-7.811-5.535 1.693-17.203 3.599-23.435 4.558l-.404-.403c.808-.252.828-.87.728-1.787a29.232 29.232 0 0 1 .05-3.625c3.819 1.247 7.22-1.703 7.22-1.703 4.487-2.095 3.28-11.064 4.138-13.516.643-1.833 1.336-12.636 1.646-18.021h.064l.035-1.808c.045-.78.065-1.236.065-1.236s.439-13.17 1.296-15.837c.798-2.452 1.446-14.805 1.546-16.764v-.257l-.065-1.142c.045-.833.065-1.76.06-2.735 0-4.479-.444-10.121-.498-11.033v-.476c.034-1.912-.195-11.489-7.948-15.11-2.857-1.34-6.293-2.938-9.619-4.494-.857-7.78-2.817-15.517-2.647-23.355 0-1.178.1-2.357.209-3.53 0 .34-.035.686-.04 1.047v2.284c.295-9.802 3.82-19.656 3.491-29.248-.03.938-.095 1.88-.18 2.824a31.943 31.943 0 0 0-.957-9.634c-.299-1.106-.703-2.248-1.566-2.987a6.268 6.268 0 0 0-2.732-1.137 52.634 52.634 0 0 0-7.175-1.404 11.868 11.868 0 0 0-1.616-3.295c-5.056-7.292-12.545-14.145-21.4-15.716-4.443-.786-9.554-.131-12.575 3.206a9.709 9.709 0 0 0-.888.943c-1.625 2.038-2.323 4.715-3.989 6.748-.109.136-.234.261-.354.393-3.261 3.064-8.341 3.703-11.966 6.454a14.543 14.543 0 0 0-1.79 1.64 31.553 31.553 0 0 0-3.909 4.992c-1.631 2.41-3.306 4.92-3.825 7.795-1.042 5.763 2.693 11.227 3.386 17.027 1.546 12.976-12.121 24.491-9.534 37.295.691 3.145 2.216 6.02 4.398 8.293-5.33 5.071-9.867 9.99-9.867 9.99v.294h-.843l.085 1.047h-.085l.464 5.685-.464 8.277v.78h.03c.154 3.034.768 13.941 1.496 16.241.857 2.666 1.291 15.837 1.291 15.837s.947 18.613 1.815 21.076c.868 2.462-.364 11.404 4.139 13.516a9.227 9.227 0 0 0 4.522 1.969c-.229 1.96-.085 3.38.658 3.825.318.196.678.304 1.047.314-.305.476-.577.975-.813 1.493a20.272 20.272 0 0 1-5.225-1.294c-4.837-2.095-20.887-6.81-25.549-3.494-4.662 3.316-15.881 6.323-10.7 19.672 5.181 13.348 7.594 13.684 7.594 13.684a18.962 18.962 0 0 1 4.143 4.374c1.556 2.457 16.051 8.078 19.675 8.078a33.871 33.871 0 0 1 4.613.241s-3.934 3.625-3.411 5.731c.524 2.106-1.197 18.965-1.197 18.965s3.989 4.222 5.695-1.315l.059.084c.32.456 2.045 2.514 5.291-.084a29.471 29.471 0 0 1 4.218-2.808l15.716-2.336a42.302 42.302 0 0 1 4.921-.037c2.494.215 4.942-1.336 6.482-2.536 3.256 1.299 6.916 2.719 8.656 3.238 3.531 1.048 19.755 5.621 23.55 4.191a5.279 5.279 0 0 0 2.044-1.53l3.62.121-1.695.356s3.301.058 7.788.12l-.189.116 5.629-.053c8.237.079 17.491.105 18.708-.183 1.904-.445 11.802-.131 14.719 0h.813s10.874-2.279 6.387-13.872c-3.451-8.906-14.056-11.494-18.763-12.207a83.272 83.272 0 0 1 3.226-.618c3.286-.524 9.668-3.667 10.187-4.741.518-1.074 5.868-4.191 7.249-5.967 1.382-1.776 5.326-14.365 2.05-23.675zm-90.074 26.053l-.534.183-.359.126-.688.713c-.549-.388-1.137-.797-1.75-1.216 1.082.068 2.194.137 3.331.194z" fill="url(#paint0_linear)"/><path d="M342.581 168.47s7.629 20.955 11.967 18.86c4.338-2.096 3.161-11.002 3.989-13.443.827-2.441 1.745-20.955 1.745-20.955s.419-13.097 1.246-15.748c.768-2.436 1.391-14.721 1.496-16.654v-.257l-.823-15.193-4.657-1.22-10.8 4.191-1.495 8.974-.584 3.505-.249 1.493-1.835 46.447z" fill="#BE6F72"/><path opacity=".1" d="M345.094 164.96s7.28 6.26 9.474 6.81c2.194.551 3.54 5.433 3.54 5.433" fill="#000"/><path d="M282.922 169.387s-7.629 20.955-11.967 18.86c-4.338-2.096-3.161-11.002-3.988-13.443-.828-2.442-1.746-20.956-1.746-20.956s-.418-13.097-1.246-15.747c-.768-2.436-1.391-14.722-1.496-16.655v-.256l.828-15.193 4.657-1.221 10.8 4.191 1.495 8.975.584 3.504.249 1.493 1.83 46.448z" fill="#BE6F72"/><path d="M332.599 57.245h-17.028V85.13h17.028V57.245z" fill="#3E373A"/><path opacity=".1" d="M332.599 57.245h-17.028V85.13h17.028V57.245z" fill="#000"/><path d="M279.931 190.258s-5.819 6.722-3.66 7.942c2.159 1.221 16.125 24.099 16.125 24.099s45.872 5.935 54.523-2.971c8.651-8.906 8.477-24.816 8.477-24.816s-6.951 1.572-7.709.718c-.758-.854-4.921-4.972-4.921-4.972s-58.846-3.751-62.835 0z" fill="#4B4B5B"/><path opacity=".02" d="M279.931 190.258s-5.819 6.722-3.66 7.942c2.159 1.221 16.125 24.099 16.125 24.099s45.872 5.935 54.523-2.971c8.651-8.906 8.477-24.816 8.477-24.816s-6.951 1.572-7.709.718c-.758-.854-4.921-4.972-4.921-4.972s-58.846-3.751-62.835 0z" fill="#000"/><path d="M362.511 105.3l-14.959 12.573-4.522.346-1.661.126-27.887 2.148-28.919-2.221-4.303-.33-5.485-.42-11.468-11.525s8.117-9.136 15.227-15.302c2.803-2.437 5.45-4.406 7.38-5.182l.329-.12a8.215 8.215 0 0 0 3.161-2.316c5.615-6.082 10.805-21.091 10.805-21.091s24.766-13.443 21.775 4.19c-2.992 17.635 11.133 13.276 11.133 13.276l4.658 2.232 1.839.885 4.692 2.258 10.586 5.103c8.307 4.018 7.619 15.37 7.619 15.37z" fill="#BE6F72"/><path opacity=".1" d="M312.32 76.345c12.301 0 22.273-10.477 22.273-23.401 0-12.925-9.972-23.402-22.273-23.402s-22.273 10.477-22.273 23.401c0 12.925 9.972 23.402 22.273 23.402zM362.545 121.97H262.479v-.256l.828-15.193s8.117-9.137 15.227-15.303l62.825-2.62 2.922-3.237 10.586 5.103c8.312 4.013 7.643 15.365 7.643 15.365s1.137 13.155.035 16.141z" fill="#000"/><path d="M362.545 121.446H262.479v-.256l.828-15.193s8.117-9.136 15.227-15.302l62.825-2.62 2.922-3.237 10.586 5.102c8.312 4.013 7.643 15.366 7.643 15.366s1.137 13.154.035 16.14z" fill="#E7C7CA"/><path opacity=".1" d="M296.28 78.844s15.786 21.134 36.812-.435c21.027-21.568 2.329 48.109 2.329 48.109l-45.374 5.657 6.233-53.33z" fill="#000"/><path d="M296.28 79.892s15.786 21.133 36.812-.435c21.027-21.568 2.329 48.108 2.329 48.108l-45.374 5.658 6.233-53.331z" fill="#E7C7CA"/><path opacity=".1" d="M339.589 83.601l1.671 26.765 1.79 8.906 1.366 6.811s3.49 52.388 2.493 55.007c-.997 2.62.499 4.715.708 6.109.21 1.393-.209 4.893-.045 6.465.165 1.571 0 2.268-3.819 1.707-3.819-.56-9.145-1.535-9.145-1.535s-13.462 1.048-18.114-.696c-4.652-1.745-13.463-1.75-13.463-1.75s-13.298.351-17.616-.173-6.651 5.59-9.473 3.84c-2.822-1.75 3.32-18.682 5.315-23.575 1.994-4.893-2.658-17.288-2.658-17.288l5.984-34.875 1.331-7.905V86.561l.329-.12a8.215 8.215 0 0 0 3.161-2.316l1.496 25.01 46.87 1.75V82.737" fill="#000"/><path d="M339.589 82.553l1.671 26.765 1.79 8.906 1.366 6.811s3.49 52.388 2.493 55.008c-.997 2.619.499 4.714.708 6.108.21 1.394-.209 4.893-.045 6.465.165 1.571 0 2.268-3.819 1.708-3.819-.561-9.145-1.535-9.145-1.535s-13.462 1.047-18.114-.697c-4.652-1.745-13.463-1.75-13.463-1.75s-13.298.351-17.616-.173-6.651 5.59-9.473 3.84c-2.822-1.75 3.32-18.681 5.315-23.574 1.994-4.893-2.658-17.289-2.658-17.289l5.984-34.874 1.331-7.906V85.513l.329-.12a8.214 8.214 0 0 0 3.161-2.316l1.496 25.01 46.87 1.75V81.689" fill="#E7C7CA"/><path opacity=".1" d="M344.979 26.697c-.284-1.095-.678-2.232-1.495-2.965a5.965 5.965 0 0 0-2.633-1.132 49.78 49.78 0 0 0-6.921-1.393 11.878 11.878 0 0 0-1.496-3.264c-4.886-7.25-12.116-14.087-20.622-15.633-4.453-.812-9.613-.083-12.465 3.605-1.566 2.027-2.239 4.715-3.82 6.705-3.046 3.867-8.546 4.343-12.385 7.335-2.05 1.571-3.536 3.85-4.986 6.061-1.571 2.394-3.187 4.888-3.685 7.748-.997 5.716 2.598 11.164 3.261 16.932 1.496 12.903-11.668 24.35-9.18 37.08 1.451 7.424 7.978 12.652 14.729 15.303 2.379.938 5.096 1.87 6.208 4.27.499 1.047.583 2.258 1.052 3.316 1.576 3.531 6.756 3.667 9.538 1.095 2.783-2.572 3.66-6.732 3.989-10.614 1.337-16.953-5.125-33.701-4.372-50.696.224-5.14 1.6-10.97 5.983-13.296 5.898-3.144 12.994 2.095 19.486 1.095a42.538 42.538 0 0 1 1.864 24.784c-1.032 4.522-2.817 8.906-2.946 13.57-.195 7.098 3.45 13.583 6.601 19.86a10.916 10.916 0 0 1 1.332 3.829 9.655 9.655 0 0 1-.713 4.008c-1.78 5.034-4.852 9.707-5.201 15.067a2.535 2.535 0 0 0 .374 1.791c.351.349.805.564 1.286.608 5.385.969 10.042-4.044 12.67-9.079a44.175 44.175 0 0 0 4.996-18.084c.544-10.667-3.096-21.16-2.872-31.837.259-12.138 5.48-24.36 2.423-36.069z" fill="#000"/><path d="M345.478 26.173c-.284-1.095-.678-2.232-1.496-2.965a5.967 5.967 0 0 0-2.632-1.132 49.823 49.823 0 0 0-6.921-1.393 11.91 11.91 0 0 0-1.496-3.264c-4.886-7.25-12.116-14.087-20.623-15.633-4.452-.812-9.613-.083-12.465 3.605-1.566 2.027-2.239 4.715-3.819 6.706-3.047 3.866-8.547 4.342-12.386 7.334-2.049 1.572-3.535 3.85-4.986 6.061-1.571 2.394-3.186 4.888-3.685 7.748-.997 5.716 2.598 11.164 3.261 16.932 1.496 12.903-11.667 24.35-9.179 37.08 1.451 7.424 7.978 12.652 14.729 15.303 2.378.938 5.096 1.87 6.207 4.27.499 1.048.584 2.258 1.053 3.316 1.575 3.531 6.756 3.667 9.538 1.095s3.66-6.732 3.989-10.614c1.336-16.953-5.126-33.701-4.373-50.696.224-5.14 1.601-10.97 5.983-13.296 5.899-3.143 12.994 2.095 19.486 1.095a42.546 42.546 0 0 1 1.865 24.785c-1.032 4.52-2.817 8.906-2.947 13.568-.194 7.099 3.451 13.584 6.602 19.86a10.914 10.914 0 0 1 1.331 3.83 9.639 9.639 0 0 1-.713 4.008c-1.78 5.034-4.851 9.707-5.2 15.067a2.525 2.525 0 0 0 .374 1.791c.351.35.804.564 1.286.608 5.385.969 10.042-4.044 12.67-9.079a44.201 44.201 0 0 0 4.996-18.084c.543-10.666-3.097-21.16-2.872-31.836.259-12.139 5.48-24.361 2.423-36.07z" fill="#3E373A"/><path d="M334.464 258.132l19.78.666-2.837-15.413-15.153 1.514-1.79 13.233z" fill="#C3C7D9"/><path d="M395.753 221.602c-1.331 1.745-6.482 4.888-6.98 5.936-.499 1.047-6.647 4.191-9.808 4.715-3.161.524-13.129 2.797-14.959 4.018-1.311.88-11.837 3.667-18.752 5.212a50.607 50.607 0 0 1-5.68 1.074c-2.991.173-35.73-11.525-35.73-11.525l6.312-6.81.349-.126c1.785-.634 10.033-3.563 14.61-4.956 5.155-1.572 11.139-8.031 11.139-8.031s8.805-3.144 9.972-3.495c1.167-.351-2.992-12.222-2.992-12.222s19.112-2.787 26.591-5.149c7.479-2.363 24.766-1.488 27.923 7.769 3.156 9.257-.644 21.846-1.995 23.59z" fill="#4B4B5B"/><path d="M308.66 251.112s-3.819 4.192-7.643 3.846c-3.825-.346-17.197 1.048-17.197 1.048a26.499 26.499 0 0 0-6.737 4.102c-3.126 2.587-4.786.523-5.095.083l-.055-.083c-1.666 5.506-5.485 1.309-5.485 1.309s1.66-16.764 1.152-18.86c-.509-2.095 3.286-5.694 3.286-5.694l4.487-1.2 11.368-3.059 16.29 5.935 5.629 12.573z" fill="#E7C7CA"/><path opacity=".1" d="M275.353 235.663l-3.365 24.528-.055-.084c-1.666 5.507-5.485 1.31-5.485 1.31s1.66-16.764 1.152-18.86c-.509-2.095 3.286-5.694 3.286-5.694l4.467-1.2zM298.878 165.893s8.805 3.143 16.454 0h-16.454zM328.939 171.833s3.655 1.918 6.482 0h-6.482zM328.939 176.381s6.148.864 7.315-.88l-7.315.88zM326.945 186.151s11.547-1.572 14.414-3.667l-14.414 3.667zM291.708 182.484s6.482 3.84 11.303 3.667l-11.303-3.667zM345.249 241.483a50.632 50.632 0 0 1-5.679 1.074c-2.992.173-35.731-11.525-35.731-11.525l6.313-6.81.349-.126a60.283 60.283 0 0 1 2.398 1.854c2.747 2.274 5.4-.696 6.397-.696.997 0 9.638 7.507 9.638 7.507s7.978 1.922 9.309 3.667c1.332 1.745 5.984 1.399 6.811 2.619.25.378.28 1.305.195 2.436z" fill="#000"/><path d="M283.82 196.105s-8.068.487-12.72-1.572c-4.652-2.059-20.109-6.81-24.596-3.473-4.488 3.337-15.293 6.286-10.307 19.562 4.987 13.275 7.315 13.621 7.315 13.621a18.5 18.5 0 0 1 3.989 4.348c1.496 2.446 15.457 8.031 18.947 8.031 3.491 0 9.638 0 18.279 6.286 8.641 6.287 16.455 6.989 16.455 6.989s10.969 4.715 14.384 5.763c3.416 1.047 19.023 5.584 22.682 4.191 3.66-1.394 5.984-10.132 5.984-10.132s1.66-7.858.827-9.079c-.832-1.221-5.484-.875-6.811-2.619-1.326-1.745-9.309-3.668-9.309-3.668s-8.621-7.512-9.618-7.512c-.997 0-3.65 2.965-6.397.697a145.371 145.371 0 0 0-17.207-11.526c-6.313-3.494-11.897-19.907-11.897-19.907z" fill="#4B4B5B"/><path opacity=".1" d="M267.6 201.171a9.076 9.076 0 0 1 4.339.129 9.397 9.397 0 0 1 3.833 2.139c3.989 3.494 17.412 10.509 17.412 10.509M367.332 200.951s-17.785 2.829-21.106 6.669l21.106-6.669z" fill="#000"/><path d="M387.775 258.798h-.782c-2.813-.105-12.341-.419-14.176 0-2.159.524-30.749 0-30.749 0l5.589-1.221s-2.074-7.638-.758-8.272c0 0-7.479-5.176-1.84-8.67 5.64-3.495 11.718-2.022 11.718-2.022l14.155-5.04 2.718-.969s15.955.875 20.273 12.4-6.148 13.794-6.148 13.794z" fill="#E7C7CA"/><path opacity=".1" d="M387.775 258.798h-.782c4.642-4.024 15.142-16.272-16.061-25.199l2.718-.969s15.955.875 20.273 12.4c4.318 11.526-6.148 13.768-6.148 13.768z" fill="#000"/><path d="M358.442 245.219c.482 0 .872-.411.872-.917s-.39-.917-.872-.917-.873.411-.873.917.391.917.873.917zM353.371 246.733c.482 0 .873-.411.873-.917s-.391-.917-.873-.917-.872.411-.872.917.39.917.872.917z" fill="#4B4B5B"/><g opacity=".1" fill="#000"><path opacity=".1" d="M328.665 52.08a42.482 42.482 0 0 0-2.862-16.838c-6.482 1.016-13.582-4.239-19.486-1.095-4.368 2.326-5.739 8.157-5.983 13.296a65.004 65.004 0 0 0-.045 4.07c0-.482 0-.969.045-1.45.229-5.14 1.601-10.97 5.983-13.297 5.904-3.143 12.994 2.096 19.486 1.095a42.312 42.312 0 0 1 2.862 14.218zM278.435 51.12c.085-1.141.064-2.289-.065-3.426-.528-4.61-2.927-9.016-3.361-13.51-.558 5.422 2.728 10.629 3.361 16.13.065.283.065.534.065.806zM304.707 98.134c-.309 3.887-1.182 8.041-3.989 10.619-2.807 2.577-7.978 2.436-9.539-1.095-.498-1.048-.573-2.269-1.057-3.316-1.107-2.4-3.829-3.332-6.207-4.27-6.757-2.656-13.273-7.858-14.724-15.303a16.892 16.892 0 0 1-.265-2.043c-.122 1.56-.033 3.13.265 4.663 1.451 7.423 7.977 12.646 14.724 15.302 2.378.938 5.1 1.871 6.207 4.27.499 1.048.584 2.258 1.057 3.316 1.571 3.531 6.752 3.667 9.539 1.095s3.655-6.732 3.989-10.619c.152-2.046.203-4.099.154-6.15 0 1.189-.064 2.362-.154 3.53zM343.219 59.76v2.268c.28-9.745 3.68-19.541 3.346-29.081-.259 8.822-3.156 17.843-3.346 26.812zM332.519 99.176a7.096 7.096 0 0 0 .115-1.891 10.807 10.807 0 0 0-1.332-3.83c-2.881-5.762-6.167-11.661-6.556-18.058 0 .272-.035.524-.04.817-.2 7.094 3.445 13.585 6.596 19.86.536.973.945 2.016 1.217 3.102zM346.086 91.596a44.24 44.24 0 0 1-5.031 18.084c-2.632 5.034-7.284 10.048-12.674 9.079a2.078 2.078 0 0 1-1.287-.613 1.34 1.34 0 0 1-.234-.409c-.06.409-.11.823-.14 1.242a2.516 2.516 0 0 0 .374 1.786c.35.353.804.57 1.287.613 5.39.969 10.042-4.044 12.674-9.079a44.237 44.237 0 0 0 5.031-18.084c.06-1.226.065-2.447.03-3.667-.01.35-.01.697-.03 1.048z"/></g><path opacity=".1" d="M346.899 249.305s12.62 5.564 20.942-6.748M349.382 259.028s10.307-7.041 23.435-.23M280.394 257.43s4.328-10.257 15.886-2.436" stroke="#000" stroke-miterlimit="10"/><path opacity=".1" d="M266.363 105.735l8.826-8.382s34.219-2.357 35.636 9.865c0 0 12.131-14.49 37.645-11.264l10.795 9.032-29.837 13.757-28.995 10.567-21.355-10.043-12.715-13.532z" fill="#000"/><path d="M266.363 106.259l8.826-8.382s34.219-2.358 35.636 9.865c0 0 12.131-14.491 37.645-11.264l10.795 9.032-29.837 13.757-28.995 10.567-21.355-10.043-12.715-13.532z" fill="#D5D6DB"/><path opacity=".1" d="M262.459 107.307l3.904 49.072 41.385 2.184-1.795-48.862-.035-.823-43.459-1.571z" fill="#000"/><path d="M262.459 106.259l3.904 49.072 41.385 2.185-1.795-48.863-.035-.822-43.459-1.572z" fill="#3C70FF"/><path opacity=".1" d="M361.159 106.259l-42.691 6.727v49.292l41.719-6.334.972-49.685z" fill="#000"/><path d="M361.159 105.211l-42.691 6.727v49.292l41.719-6.334.972-49.685z" fill="#3C70FF"/><path opacity=".3" d="M351.093 117.24l-23.061 2.692.503 8.257 22.543-2.588.015-8.361z" fill="#fff"/><path d="M268.607 181.609l2.349 6.638s3.49 3.143 7.309 1.571c3.82-1.571 7.15-2.352 8.811-3.882 1.66-1.529 3.989-9.215 3.989-9.215s2.328-8.382 4.652-10.477c2.323-2.096 8.476-30.967 0-28.143-8.477 2.823-14.959 29.017-14.959 29.017s-1.496 1.918-3.655 2.096c-2.159.178-6.482-.351-7.314 1.572-.833 1.922-3.675 6.983-1.182 10.823z" fill="#BE6F72"/><path opacity=".1" d="M318.468 112.98a13.672 13.672 0 0 1-6.63-.079 14.126 14.126 0 0 1-5.89-3.2l1.8 48.857s4.238 4.82 10.72 3.72V112.98z" fill="#000"/><path d="M318.468 111.933c-2.185.517-4.456.49-6.63-.079a14.14 14.14 0 0 1-5.89-3.201l1.8 48.857s4.238 4.82 10.72 3.72v-49.297z" fill="#3C70FF"/><path opacity=".1" d="M318.468 111.933c-2.185.517-4.456.49-6.63-.079a14.14 14.14 0 0 1-5.89-3.201l1.8 48.857s4.238 4.82 10.72 3.72v-49.297zM319.466 106.427s17.366-5.58 21.894-4.794l-21.894 4.794zM300.04 103.991s-16.834-4.191-19.646-3.002l19.646 3.002zM330.415 107.123s11.613-4.474 15.811-2.347l-15.811 2.347zM324.566 219.355a38 38 0 0 1 5.724-3.736c2.992-1.514 8.477-5.443 8.477-5.443M280.394 165.893s-7.284 6.26-9.473 6.81c-2.189.55-3.54 5.433-3.54 5.433" fill="#000"/><path d="M356.876 180.676l-2.323 6.654s-3.491 3.143-7.315 1.571c-3.824-1.571-7.145-2.352-8.81-3.882-1.666-1.529-3.989-9.215-3.989-9.215s-2.324-8.382-4.652-10.477c-2.329-2.096-8.477-30.967 0-28.143 8.476 2.823 14.958 29.018 14.958 29.018s1.496 1.917 3.655 2.095c2.159.178 6.482-.351 7.315 1.572.832 1.922 3.654 6.983 1.161 10.807z" fill="#BE6F72"/><path opacity=".1" d="M352.802 168.439s4.762 3.216 4.742 7.062l-4.742-7.062z" fill="#000"/><path d="M312.4 75.198c12.301 0 22.273-10.477 22.273-23.402 0-12.924-9.972-23.402-22.273-23.402s-22.273 10.478-22.273 23.402c0 12.925 9.972 23.402 22.273 23.402z" fill="#BE6F72"/><path d="M298.414 45.515c2.703-.445 5.071-2.096 7.654-3.044 5.779-2.132 12.171-.67 18.02 1.252 2.243.739 4.522 1.572 6.875 1.572 2.354 0 4.852-1.011 6.054-3.143 1.107-1.96.892-4.506-.04-6.565-.933-2.059-2.493-3.714-4.069-5.275-5.185-5.145-11.618-9.954-18.733-9.43-2.862.215-5.599 1.289-8.232 2.478a89.063 89.063 0 0 0-9.663 5.113c-2.398 1.462-6.841 3.416-8.222 6.087-3.141 6.02 5.47 11.762 10.356 10.955z" fill="#3E373A"/><path opacity=".1" d="M337.017 39.951c-1.202 2.133-3.7 3.144-6.054 3.144-2.353 0-4.632-.802-6.88-1.54-5.849-1.923-12.236-3.39-18.02-1.253-2.578.949-4.951 2.62-7.654 3.039-3.939.65-10.281-2.955-10.969-7.539-.773 5.297 6.581 9.833 10.969 9.11 2.703-.445 5.076-2.095 7.654-3.038 5.784-2.138 12.171-.67 18.02 1.252 2.248.739 4.522 1.572 6.88 1.54 2.359-.031 4.852-1.006 6.054-3.143a6.397 6.397 0 0 0 .698-3.83 5.858 5.858 0 0 1-.698 2.258z" fill="#000"/></g><defs><linearGradient id="paint0_linear" x1="316.937" y1="262.947" x2="316.937" gradientUnits="userSpaceOnUse"><stop stop-color="gray" stop-opacity=".25"/><stop offset=".54" stop-color="gray" stop-opacity=".12"/><stop offset="1" stop-color="gray" stop-opacity=".1"/></linearGradient><clipPath id="clip0"><path fill="#fff" d="M0 0h510v426H0z"/></clipPath></defs></svg>