<svg width="64" height="64" viewBox="0 0 64 64" fill="none" xmlns="http://www.w3.org/2000/svg">
<path d="M59.4891 62.9003C61.3725 62.9003 62.8997 61.373 62.8997 59.4892V4.51102C62.8997 2.62694 61.3727 1.10016 59.4891 1.10016H4.51096C2.62688 1.10016 1.1001 2.62694 1.1001 4.51102V59.4892C1.1001 61.3728 2.62664 62.9003 4.51096 62.9003H59.4891Z" fill="#3C5A99"/>
<path d="M43.7409 62.9004V38.9679H51.7738L52.9766 29.6411H43.7409V23.6864C43.7409 20.9861 44.4907 19.1459 48.363 19.1459L53.3018 19.1437V10.8017C52.4477 10.688 49.5159 10.4341 46.105 10.4341C38.9843 10.4341 34.1092 14.7806 34.1092 22.7627V29.6411H26.0557V38.9679H34.1092V62.9004H43.7409Z" fill="white"/>
</svg>
