<svg width="15" height="15" viewBox="0 0 15 15" fill="none" xmlns="http://www.w3.org/2000/svg">
<g clip-path="url(#clip0)">
<path d="M14.1568 6.3238L14.1802 6.32892H4.14293L7.2983 3.16661C7.45281 3.01222 7.53756 2.80307 7.53756 2.58356C7.53756 2.36404 7.45281 2.15636 7.2983 2.00161L6.80732 1.51039C6.65293 1.356 6.4472 1.27063 6.22781 1.27063C6.0083 1.27063 5.80244 1.35539 5.64805 1.50978L0.23915 6.91819C0.0841496 7.07319 -0.000606489 7.27965 3.26724e-06 7.49929C-0.000606489 7.72014 0.0841496 7.92673 0.23915 8.08148L5.64805 13.4904C5.80244 13.6447 6.00817 13.7295 6.22781 13.7295C6.4472 13.7295 6.65293 13.6445 6.80732 13.4904L7.2983 12.9992C7.45281 12.845 7.53756 12.6392 7.53756 12.4197C7.53756 12.2003 7.45281 12.0053 7.2983 11.851L4.10732 8.671H14.1681C14.6201 8.671 15 8.28136 15 7.82953V7.13478C15 6.68295 14.6089 6.3238 14.1568 6.3238Z" fill="white"/>
</g>
<defs>
<clipPath id="clip0">
<rect width="15" height="15" fill="white"/>
</clipPath>
</defs>
</svg>
