<svg width="64" height="53" viewBox="0 0 64 53" fill="none" xmlns="http://www.w3.org/2000/svg">
<path d="M20.2067 51.8799C44.1983 51.8799 57.3174 32.0041 57.3174 14.7692C57.3174 14.2047 57.3059 13.6427 57.2806 13.0832C59.8273 11.2421 62.041 8.94456 63.7867 6.32912C61.4497 7.36792 58.9347 8.06725 56.2964 8.38257C58.9894 6.76779 61.0569 4.21338 62.0321 1.16819C59.512 2.66218 56.7211 3.74803 53.7497 4.33418C51.3694 1.79885 47.981 0.213318 44.2288 0.213318C37.0259 0.213318 31.1847 6.05449 31.1847 13.2549C31.1847 14.2784 31.2991 15.274 31.5229 16.2289C20.6823 15.6834 11.0699 10.4932 4.63751 2.60116C3.51733 4.52872 2.87143 6.76779 2.87143 9.1569C2.87143 13.6821 5.17407 17.6771 8.67572 20.0141C6.53582 19.9479 4.52562 19.3605 2.76843 18.3828C2.76651 18.4375 2.76652 18.4908 2.76652 18.5493C2.76652 24.866 7.26246 30.1401 13.2308 31.3353C12.1348 31.6341 10.9815 31.7943 9.79144 31.7943C8.95226 31.7943 8.13469 31.7117 7.34002 31.5591C9.00057 36.7416 13.8157 40.5128 19.5246 40.6184C15.0604 44.1175 9.43669 46.2014 3.32469 46.2014C2.27318 46.2014 1.23438 46.1416 0.213379 46.0209C5.9859 49.7209 12.8404 51.8799 20.2074 51.8799" fill="#1DA1F2"/>
</svg>
